PathFileType	4	(X/Y/Z)	C:\Users\Basilio\Documents\Thesis Gigler\squatting_fais\c3dfiles\047\SJ_pre5\markers_experimental.trc
DataRate	CameraRate	NumFrames	NumMarkers	Units	OrigDataRate	OrigDataStartFrame	OrigNumFrames
200.000000	200.000000	4	61	mm	200.000000	174	1393
Frame#	Time	FHD			LBHD			RBHD			C7			T10			CLAV			LSHO			LUUPA			LMUPA			LDUPA			LLEP			LMEP			LRAD			LUL			LRFIN			RSHO			RUPA1			RMUPA			RDUPA			RLEP			RMEP			RRAD			RUL			RUFIN			LASI			RASI			USACR			LSACR			RSACR			LTHI1			LTHI2			LTHI3			LTHI4			LLFC			LMFC			LTIB1			LTIB2			LTIB3			LTIB4			LLMAL			LMMAL			LMT1			LMT2			LMT5			RTHI			RTHI2			RTHI3			RTHI4			RLFC			RMFC			RTIB1			RTIB2			RTIB3			RTIB4			RLMAL			RMMAL			RHEE			RMT1			RMT2			RMT5			*60			
		X1	Y1	Z1	X2	Y2	Z2	X3	Y3	Z3	X4	Y4	Z4	X5	Y5	Z5	X6	Y6	Z6	X7	Y7	Z7	X8	Y8	Z8	X9	Y9	Z9	X10	Y10	Z10	X11	Y11	Z11	X12	Y12	Z12	X13	Y13	Z13	X14	Y14	Z14	X15	Y15	Z15	X16	Y16	Z16	X17	Y17	Z17	X18	Y18	Z18	X19	Y19	Z19	X20	Y20	Z20	X21	Y21	Z21	X22	Y22	Z22	X23	Y23	Z23	X24	Y24	Z24	X25	Y25	Z25	X26	Y26	Z26	X27	Y27	Z27	X28	Y28	Z28	X29	Y29	Z29	X30	Y30	Z30	X31	Y31	Z31	X32	Y32	Z32	X33	Y33	Z33	X34	Y34	Z34	X35	Y35	Z35	X36	Y36	Z36	X37	Y37	Z37	X38	Y38	Z38	X39	Y39	Z39	X40	Y40	Z40	X41	Y41	Z41	X42	Y42	Z42	X43	Y43	Z43	X44	Y44	Z44	X45	Y45	Z45	X46	Y46	Z46	X47	Y47	Z47	X48	Y48	Z48	X49	Y49	Z49	X50	Y50	Z50	X51	Y51	Z51	X52	Y52	Z52	X53	Y53	Z53	X54	Y54	Z54	X55	Y55	Z55	X56	Y56	Z56	X57	Y57	Z57	X58	Y58	Z58	X59	Y59	Z59	X60	Y60	Z60	X61	Y61	Z61	

175	0.87	-76.55777740478517	1667.89892578125	-893.1995849609377	-241.2956237792969	1675.519897460938	-971.9023437500002	-261.5633544921876	1681.753295898438	-824.0943603515627	-340.3733215332032	1500.517578125	-890.8569335937502	-365.9767150878907	1177.595703125	-888.1383056640627	-176.7054595947266	1452.661499023438	-895.5864868164065	-260.2901611328126	1477.208251953125	-1069.392700195313	-359.2717895507813	1352.820434570313	-1189.056884765625	-318.0060424804688	1331.42626953125	-1212.286865234375	-365.1780090332032	1298.083862304688	-1232.540893554688	-347.5149536132813	1234.458251953125	-1268.213500976563	-403.7805480957032	1202.60791015625	-1193.522705078125	-249.4648895263672	1075.6953125	-1091.536987304688	-203.3296661376954	1048.333251953125	-1148.398071289063	-191.0442810058594	1075.688110351563	-1051.545776367188	-259.2341918945313	1496.433349609375	-726.5755004882814	-370.2047119140626	1378.09814453125	-597.4247436523439	-335.6284484863282	1350.195190429688	-575.1477050781251	-384.7098083496095	1323.817749023438	-554.6181030273439	-373.9536437988282	1255.544311523438	-520.9718627929689	-431.0050354003907	1225.364501953125	-587.7785644531251	-254.0676269531251	1102.993530273438	-688.7944335937501	-225.8654022216797	1070.607421875	-628.0716552734376	-196.7923889160157	1086.24609375	-722.6113281250001	-190.3854675292969	955.6126708984377	-1001.310241699219	-196.6312713623047	958.5969848632815	-771.002868652344	-372.2891845703126	1037.888305664063	-893.3408813476565	-378.8228759765626	1007.364868164063	-922.0513305664065	-376.0274353027344	1005.998718261719	-864.3323974609377	-298.3408203125001	814.4606933593752	-1086.551147460938	-270.8814392089844	735.7823486328126	-1100.961059570313	-220.9561462402344	734.8041992187501	-1093.380859375	-303.8029174804688	684.3305664062501	-1101.589965820313	-339.8963623046876	511.0343017578126	-1089.795532226563	-289.3967285156251	478.6734313964845	-983.0186157226565	-299.6951599121094	311.1682739257813	-1046.96826171875	-328.5284423828126	280.8393249511719	-1125.225952148438	-302.2317810058594	270.5581970214844	-1088.589721679688	-310.7052001953126	188.5757293701172	-1073.451904296875	-371.6321105957032	96.46781921386722	-1128.936645507813	-333.5547485351563	100.0300750732422	-1046.214599609375	-210.0636444091797	63.87872695922853	-1100.661499023438	-218.2180480957032	64.16553497314455	-1144.206420898438	-267.9028625488282	43.47051239013673	-1182.157592773438	-317.5293884277344	786.689147949219	-683.9281616210939	-287.6885375976563	727.1727905273439	-675.3698730468751	-254.7817993164063	725.9900512695314	-677.7263793945314	-323.2073669433594	651.1918945312501	-684.6083374023439	-335.8176269531251	500.9795532226564	-697.9459228515626	-295.4675903320313	488.5137023925782	-811.5754394531252	-301.8318786621094	373.5615539550782	-703.8974609375001	-367.2529296875001	292.1744995117188	-672.7531738281251	-320.8239746093751	292.6654357910157	-679.2772827148439	-304.9988098144532	243.3278808593751	-709.4273071289064	-366.7817993164063	90.34162902832033	-687.2620239257814	-322.9971008300782	104.6914138793946	-769.0675048828127	-408.313201904297	50.80976486206056	-748.0916748046876	-197.2226715087891	55.15815353393556	-717.3201904296876	-206.7811889648438	58.73270416259767	-673.8276977539064	-262.8575439453126	30.38826179504395	-626.2191772460939	nan	nan	nan	
176	0.875	-76.46961212158205	1667.861572265625	-893.1394042968752	-241.2257080078126	1675.497314453125	-971.899597167969	-261.3811645507813	1681.787841796875	-824.1541137695315	-340.3020019531251	1500.521362304688	-890.8724365234377	-365.9432983398438	1177.620727539063	-888.1661376953127	-176.6589813232422	1452.770751953125	-895.5479125976565	-260.2484436035157	1477.189331054688	-1069.42529296875	-359.2112426757813	1352.826416015625	-1189.069091796875	-317.9268188476563	1331.492065429688	-1212.268188476563	-365.1115722656251	1298.1572265625	-1232.568481445313	-347.6219482421876	1234.514404296875	-1268.21630859375	-403.774139404297	1202.716918945313	-1193.506713867188	-249.5139465332032	1075.718505859375	-1091.595336914063	-203.2377166748047	1048.373413085938	-1148.418579101563	-191.0930938720703	1075.663452148438	-1051.591674804688	-259.2369689941407	1496.424438476563	-726.5407104492189	-370.2676696777344	1378.098754882813	-597.4539794921876	-335.6516723632813	1350.209716796875	-575.1779174804689	-384.7694702148439	1323.8662109375	-554.6513061523439	-373.9493103027344	1255.5908203125	-521.0415649414064	-430.9794006347657	1225.377319335938	-587.8445434570314	-254.3018951416016	1102.953491210938	-688.7319335937501	-225.8904266357422	1070.579956054688	-628.0223388671876	-196.8011474609376	1086.2529296875	-722.6214599609376	-190.4486541748047	955.6099243164065	-1001.313537597656	-196.6245269775391	958.585144042969	-771.0564575195315	-372.3389892578126	1037.867309570313	-893.3748168945315	-378.8397216796876	1007.332885742188	-922.0586547851565	-375.9297790527344	1005.968383789063	-864.324157714844	-298.4383544921876	814.3652954101565	-1086.560180664063	-271.1946411132813	735.5582275390626	-1100.856567382813	-220.9913482666016	734.8260498046876	-1093.4638671875	-303.8149108886719	684.3275146484376	-1101.578369140625	-339.9177246093751	511.033416748047	-1089.807250976563	-289.3922729492188	478.6912231445314	-983.0212402343752	-299.7019042968751	311.1405944824219	-1046.954467773438	-328.8150939941407	281.0721130371094	-1125.140747070313	-302.2453918457032	270.5545654296876	-1088.584594726563	-310.5686645507813	188.697998046875	-1073.30810546875	-371.7141723632813	96.48220825195315	-1128.8857421875	-333.5711669921876	100.0414428710938	-1046.224731445313	-210.1011962890626	63.83638381958009	-1100.649780273438	-218.2178649902344	64.21370697021486	-1144.208740234375	-267.8655090332032	43.46202850341798	-1182.151245117188	-317.5581665039063	786.6655273437502	-683.9240722656251	-287.6802978515626	727.1862792968751	-675.4073486328126	-254.8077850341797	725.9219970703126	-677.6266479492189	-323.1911621093751	651.1801147460939	-684.6657104492189	-335.7781677246094	501.0098571777345	-697.9851684570314	-295.5653381347657	488.4821166992189	-811.5467529296877	-301.8119812011719	373.5470581054688	-703.9038696289064	-367.2578735351563	292.1795654296876	-672.7589721679689	-320.8774414062501	292.7156372070313	-679.3070678710939	-305.0347290039063	243.3391723632813	-709.4356689453126	-366.7377929687501	90.42261505126955	-687.1913452148439	-323.1411437988282	104.5972518920899	-769.0471191406252	-408.3194274902345	50.77171707153322	-748.0918579101564	-197.2520294189454	55.1714553833008	-717.3197021484376	-206.775863647461	58.81929016113283	-673.7809448242189	-262.8598632812501	30.40516662597657	-626.2029418945314	nan	nan	nan	
177	0.88	-76.18110656738283	1667.797729492188	-893.1744384765627	-241.0330963134766	1675.492797851563	-971.9507446289065	-261.1734619140626	1681.832763671875	-824.2100219726565	-340.2924499511719	1500.576416015625	-890.8508911132815	-365.9322204589844	1177.61572265625	-888.2410278320315	-176.6554870605469	1452.671997070313	-895.5080566406252	-260.1648254394532	1477.256469726563	-1069.372680664063	-359.2268981933594	1352.894653320313	-1189.062133789063	-317.9012756347657	1331.568237304688	-1212.226196289063	-365.0851440429688	1298.3154296875	-1232.585083007813	-347.6072387695313	1234.579467773438	-1268.19873046875	-403.7657775878907	1202.753662109375	-1193.545288085938	-249.5442962646485	1075.697509765625	-1091.619995117188	-203.3509063720704	1048.421875	-1148.463134765625	-191.0546417236328	1075.741088867188	-1051.626220703125	-259.2040100097657	1496.47509765625	-726.5874023437501	-370.2650451660157	1378.131591796875	-597.5214843750001	-335.6666870117188	1350.226684570313	-575.2497558593751	-384.7342224121095	1323.924072265625	-554.7376098632814	-373.9779357910157	1255.58642578125	-521.0769042968751	-430.9776611328126	1225.418823242188	-587.9285888671876	-254.1632843017579	1103.013305664063	-688.8016357421876	-225.8887176513672	1070.593994140625	-628.0396728515626	-196.7912292480469	1086.25732421875	-722.6456298828126	-190.5220031738282	955.6470947265627	-1001.348205566406	-196.4777526855469	958.4951171875002	-770.443298339844	-372.3358764648438	1037.873168945313	-893.374938964844	-378.8290405273438	1007.334716796875	-922.0608520507815	-375.9500427246094	1005.938354492188	-864.3267822265627	-298.3997497558594	814.3970947265627	-1086.589111328125	-270.9245605468751	735.7584228515626	-1100.960693359375	-221.0736541748047	734.8201293945314	-1093.353881835938	-303.8898010253907	684.3173828125001	-1101.589721679688	-339.9544067382813	511.0627441406251	-1089.8046875	-289.3847351074219	478.6826477050782	-982.993835449219	-299.7106933593751	311.1597595214844	-1046.936157226563	-329.2148742675782	281.2866821289063	-1124.942016601563	-301.8825683593751	270.6414794921876	-1088.744384765625	-310.5688171386719	188.7122039794922	-1073.301147460938	-371.6730651855469	96.44495391845706	-1128.942260742188	-333.5367126464844	100.0712890625	-1046.19384765625	-210.1258850097657	63.82277679443361	-1100.612915039063	-218.1919860839844	64.18950653076173	-1144.230224609375	-267.9053039550782	43.49529647827149	-1182.1474609375	-317.5144348144532	786.665466308594	-683.9193725585939	-287.6580505371094	727.2300415039064	-675.5213012695314	-254.7358856201172	725.9838867187501	-677.7459106445314	-323.1970825195313	651.1810913085939	-684.6186523437501	-335.7709960937501	501.0317687988282	-697.9547729492189	-295.5497131347657	488.4900512695314	-811.5535888671877	-301.8375854492188	373.5488586425782	-703.9176025390626	-367.3008728027344	292.1739807128907	-672.7626953125001	-320.9108276367188	292.6853637695313	-679.2789306640626	-305.0287780761719	243.3330993652344	-709.4556274414064	-366.7407531738282	90.40842437744142	-687.2033081054689	-323.2180786132813	104.5609893798828	-769.0579223632815	-408.3247375488282	50.77941131591798	-748.0804443359376	-197.248764038086	55.16364669799806	-717.3109741210939	-206.7910766601563	58.77650833129884	-673.8763427734376	-262.8516540527344	30.40497779846192	-626.2316894531251	nan	nan	nan	
178	0.885	-76.17353820800783	1667.746948242188	-893.160583496094	-240.893783569336	1675.519653320313	-971.9387817382815	-261.0971984863282	1681.844116210938	-824.3776855468752	-340.1669921875001	1500.551635742188	-890.8660278320315	-366.0015258789063	1177.561401367188	-888.2351074218752	-176.4750061035157	1452.742431640625	-895.5642700195315	-260.2197570800782	1477.271240234375	-1069.33251953125	-359.1427612304688	1353.024291992188	-1189.048461914063	-317.8383789062501	1331.607421875	-1212.221557617188	-365.1082153320313	1298.370361328125	-1232.5849609375	-347.6665954589844	1234.656860351563	-1268.126220703125	-403.7756958007814	1202.843994140625	-1193.5	-249.5645599365235	1075.703125	-1091.643188476563	-203.4333190917969	1048.43212890625	-1148.505126953125	-191.0637512207032	1075.775146484375	-1051.654541015625	-259.1582336425782	1496.429321289063	-726.5604248046876	-370.2756652832032	1378.145629882813	-597.5939331054689	-335.6496887207032	1350.259033203125	-575.2761840820314	-384.7080078125001	1323.951904296875	-554.8074951171876	-373.9109191894532	1255.620483398438	-521.1957397460939	-431.0006103515626	1225.41552734375	-587.9912109375001	-253.9715728759766	1103.106323242188	-688.8750610351564	-225.8920898437501	1070.62451171875	-628.0217895507814	-196.8025207519532	1086.282592773438	-722.6490478515626	-190.4959564208985	955.641784667969	-1001.361267089844	-196.6297149658204	958.6042480468752	-771.0379638671877	-372.3083496093751	1037.893676757813	-893.351989746094	-378.8269958496094	1007.333984375	-922.0618896484377	-376.0318908691407	1005.979248046875	-864.3380126953127	-298.4373779296876	814.3770141601565	-1086.587524414063	-270.9720153808594	735.7536010742189	-1100.9521484375	-221.0300598144532	734.8502807617189	-1093.431884765625	-303.8580932617188	684.3281860351564	-1101.613891601563	-339.9869384765626	511.0271606445314	-1089.790649414063	-289.4171142578126	478.7398376464845	-983.0260009765627	-299.8124694824219	311.1192016601563	-1046.9599609375	-329.1348876953126	281.3554992675782	-1125.00439453125	-301.9104003906251	270.6253051757813	-1088.790283203125	-310.5867004394532	188.7158813476563	-1073.322998046875	-371.6275024414063	96.43364715576175	-1128.946411132813	-333.5329284667969	100.092041015625	-1046.23583984375	-210.1014099121094	63.83934402465822	-1100.657104492188	-218.2056274414063	64.18424224853517	-1144.201293945313	-267.8769531250001	43.48279571533204	-1182.124145507813	-317.4599609375001	786.7053833007815	-683.9580078125001	-287.6745300292969	727.2741088867189	-675.5208129882814	-254.7495269775391	726.0119018554689	-677.7792358398439	-323.1983642578126	651.2058715820314	-684.6521606445314	-335.7006835937501	501.0732727050782	-697.9795532226564	-295.4019775390626	488.5518188476564	-811.5989990234377	-301.8268127441407	373.5420532226563	-703.8774414062501	-367.2819824218751	292.1775817871094	-672.7433471679689	-320.9746398925782	292.6950073242188	-679.2666625976564	-305.0385437011719	243.3217926025391	-709.4135131835939	-366.8000488281251	90.31861114501955	-687.2824707031251	-323.0398864746094	104.6634750366211	-769.088317871094	-408.318084716797	50.77336883544923	-748.0893554687501	-197.3678741455079	55.47106933593751	-717.1940307617189	-206.7373657226563	58.8135108947754	-673.8370361328126	-262.8686218261719	30.40146827697755	-626.1965942382814	nan	nan	nan	
